<?xml version="1.0" standalone="no"?>
<!DOCTYPE svg PUBLIC "-//W3C//DTD SVG 20010904//EN"
 "http://www.w3.org/TR/2001/REC-SVG-20010904/DTD/svg10.dtd">
<svg version="1.0" xmlns="http://www.w3.org/2000/svg"
 width="96.000000pt" height="96.000000pt" viewBox="0 0 96.000000 96.000000"
 preserveAspectRatio="xMidYMid meet">
<metadata>
Created by potrace 1.11, written by Peter Selinger 2001-2013
</metadata>
<g transform="translate(0.000000,96.000000) scale(0.100000,-0.100000)"
fill="#000000" stroke="none">
<path d="M530 930 c0 -5 -10 -10 -22 -10 -35 0 -44 -11 -52 -57 l-6 -43 70
-45 c70 -45 71 -45 160 -45 l90 0 0 41 c0 37 -6 47 -47 87 -58 54 -193 105
-193 72z"/>
<path d="M299 907 c-70 -29 -102 -52 -159 -113 -25 -27 -35 -40 -22 -30 l22
19 -6 -31 -6 -32 68 0 c64 0 73 3 155 52 83 49 87 53 92 92 3 23 2 45 -2 49
-20 20 -87 17 -142 -6z"/>
<path d="M700 886 c0 -6 96 -78 120 -90 8 -4 -2 8 -24 27 -40 35 -96 72 -96
63z"/>
<path d="M591 688 c-5 -13 -20 -51 -34 -86 l-26 -63 56 -85 c47 -71 60 -84 77
-80 12 3 46 6 77 6 l56 0 37 87 37 87 -48 78 -47 78 -88 0 c-83 0 -89 -2 -97
-22z"/>
<path d="M82 624 l-42 -77 27 -73 c27 -73 28 -74 63 -74 19 0 51 -3 70 -6 35
-6 35 -5 78 71 48 82 48 83 11 180 l-20 55 -72 0 -72 0 -43 -76z"/>
<path d="M891 541 c-21 -14 -81 -161 -81 -200 0 -62 12 -111 26 -111 8 0 14
-5 14 -11 0 -6 -8 -8 -18 -5 -21 7 -155 -88 -217 -154 -36 -38 -38 -42 -15
-35 206 57 350 245 350 458 0 63 -1 67 -22 67 -13 0 -29 -4 -37 -9z"/>
<path d="M10 482 c0 -177 105 -346 263 -421 38 -18 70 -31 73 -29 2 2 -19 21
-46 42 -28 21 -50 42 -50 46 0 11 -123 105 -135 103 -6 -2 -11 21 -12 54 -1
58 -67 263 -84 263 -5 0 -9 -26 -9 -58z"/>
<path d="M327 519 c-8 -13 -30 -51 -50 -85 l-35 -61 47 -82 46 -81 100 2 99 3
47 75 46 75 -53 83 -54 82 -52 0 c-29 0 -69 3 -90 6 -31 5 -38 3 -51 -17z"/>
<path d="M292 160 c-22 -30 -28 -50 -14 -50 4 0 29 -21 56 -46 47 -46 48 -46
129 -51 l82 -5 45 47 45 47 -48 44 -49 44 -112 0 -112 0 -22 -30z"/>
</g>
</svg>
